#N canvas 270 25 1067 847 12;
#X obj 118 55 adc~;
#X text 421 38 - multiple pitches of total distance x over y time?
;
#X obj 118 96 sigmund~ notes;
#X msg 195 62 minpower \$1;
#X obj 239 21 hsl 128 15 0 127 0 1 empty empty empty -2 -8 0 10 #fcfcfc
#000000 #000000 6000 1;
#X floatatom 118 120 5 0 0 0 - - - 0;
#X obj 415 283 metro 1;
#X obj 405 244 tgl 15 0 empty empty empty 17 7 0 10 #fcfcfc #000000
#000000 0 1;
#X msg 413 329 1;
#X obj 413 353 +;
#X floatatom 413 386 5 0 0 0 - - - 0;
#X obj 392 171 change;
#X msg 392 219 1;
#X obj 392 195 t b;
#X msg 549 399 0;
#X obj 290 249 +;
#X floatatom 290 273 5 0 0 0 - - - 0;
#X obj 180 216 f;
#X obj 208 182 t b;
#X floatatom 180 240 5 0 0 0 - - - 0;
#X obj 151 151 t f f b;
#X obj 162 271 -;
#X floatatom 162 295 5 0 0 0 - - - 0;
#N canvas 0 22 450 278 (subpatch) 0;
#X array pitch_delta 10 float 3;
#A 0 0 0 0 0 0 0 0 0 0 0;
#X coords 0 36 10 0 200 140 1 0 0;
#X restore 797 145 graph;
#X floatatom 333 483 5 0 0 0 - - - 0;
#X obj 332 415 bng 15 250 50 0 empty empty empty 17 7 0 10 #fcfcfc
#000000 #000000;
#X obj 162 318 abs;
#X obj 149 342 change;
#X msg 199 424 1;
#X obj 199 448 +;
#X floatatom 199 472 5 0 0 0 - - - 0;
#X obj 212 498 % 10;
#X msg 496 307 0;
#X obj 146 371 t b f b b;
#X obj 585 452 tgl 15 0 empty empty empty 17 7 0 10 #fcfcfc #000000
#000000 0 1;
#X obj 576 345 < 1000;
#X obj 577 367 sel 0;
#X obj 416 539 tgl 15 0 empty empty empty 17 7 0 10 #fcfcfc #000000
#000000 0 1;
#X obj 504 546 +;
#X obj 572 502 t b f;
#X floatatom 504 570 5 0 0 0 - - - 0;
#X obj 416 510 > 20;
#X msg 51 279 1;
#X obj 51 303 +;
#X floatatom 44 346 5 0 0 0 - - - 0;
#X obj 58 225 spigot;
#X msg 96 308 0;
#X obj 467 480 nbx 5 14 -1e+37 1e+37 0 1 pitch_delta_total pitch_delta_total_rcv
pitch_delta_total 0 -8 0 10 #fcfcfc #000000 #000000 49 256;
#X obj 615 285 nbx 5 14 -1e+37 1e+37 0 1 time_window time_window_rcv
time_window 0 -8 0 10 #fcfcfc #000000 #000000 1400 256;
#X obj 504 593 sel 0 2;
#X obj 499 678 tgl 50 0 empty empty singing_on 17 7 0 10 #ff8300 #000000
#000000 0 1;
#X msg 491 640 0;
#X msg 529 641 1;
#X obj 167 560 tabwrite pitch_delta;
#X obj 333 439 array sum pitch_delta;
#N canvas 0 22 450 278 (subpatch) 0;
#X array pitch 10 float 3;
#A 0 0 0 0 0 0 0 0 0 0 0;
#X coords 0 127 10 0 200 140 1 0 0;
#X restore 798 305 graph;
#X obj 50 474 change;
#X obj 47 503 t b f b b;
#X obj 10 569 tabwrite pitch;
#X msg 653 449 \; pitch_delta const 0;
#X msg 659 494 \; pitch const 0;
#X text 422 66 - figure out how to use number of notes?;
#X text 420 91 - how to better exclude speech/voice;
#X text 417 138 - calibration?;
#X obj 243 94 sigmund~;
#X floatatom 243 118 5 0 0 0 - - - 0;
#X floatatom 299 121 5 0 0 0 - - - 0;
#X text 458 173 comment;
#X text 417 118 - maybe try different pitch track modes? test peaks?
;
#X text 487 192 aim for expressiveness over accuracy;
#X obj 504 828 noteout;
#X msg 495 791 60 \$1;
#X obj 560 746 *;
#X obj 626 683 tgl 15 0 empty empty system\ on 17 7 0 10 #fcfcfc #000000
#000000 0 1;
#X text 828 659 CLEAR the AVERAGE;
#X connect 0 0 2 0;
#X connect 0 0 64 0;
#X connect 2 0 5 0;
#X connect 3 0 2 0;
#X connect 4 0 3 0;
#X connect 5 0 11 0;
#X connect 5 0 20 0;
#X connect 5 0 56 0;
#X connect 6 0 8 0;
#X connect 7 0 6 0;
#X connect 8 0 9 0;
#X connect 9 0 10 0;
#X connect 10 0 9 1;
#X connect 10 0 35 0;
#X connect 11 0 13 0;
#X connect 12 0 7 0;
#X connect 12 0 15 0;
#X connect 13 0 12 0;
#X connect 14 0 7 0;
#X connect 14 0 10 0;
#X connect 14 0 16 0;
#X connect 15 0 16 0;
#X connect 16 0 15 1;
#X connect 17 0 19 0;
#X connect 18 0 17 0;
#X connect 19 0 21 1;
#X connect 20 0 21 0;
#X connect 20 1 17 1;
#X connect 20 2 18 0;
#X connect 20 2 45 0;
#X connect 21 0 22 0;
#X connect 22 0 26 0;
#X connect 24 0 41 0;
#X connect 25 0 54 0;
#X connect 26 0 27 0;
#X connect 27 0 33 0;
#X connect 28 0 29 0;
#X connect 29 0 30 0;
#X connect 30 0 29 1;
#X connect 30 0 31 0;
#X connect 31 0 53 1;
#X connect 31 0 58 1;
#X connect 32 0 10 0;
#X connect 33 0 25 0;
#X connect 33 1 53 0;
#X connect 33 2 28 0;
#X connect 33 3 32 0;
#X connect 34 0 39 0;
#X connect 34 0 45 1;
#X connect 35 0 36 0;
#X connect 35 0 34 0;
#X connect 36 0 14 0;
#X connect 36 0 59 0;
#X connect 36 0 25 0;
#X connect 36 0 60 0;
#X connect 37 0 38 0;
#X connect 38 0 40 0;
#X connect 39 0 38 0;
#X connect 39 1 38 1;
#X connect 40 0 49 0;
#X connect 41 0 37 0;
#X connect 42 0 43 0;
#X connect 43 0 44 0;
#X connect 44 0 43 1;
#X connect 45 0 42 0;
#X connect 46 0 44 0;
#X connect 47 0 41 1;
#X connect 48 0 35 1;
#X connect 49 0 51 0;
#X connect 49 1 52 0;
#X connect 50 0 72 0;
#X connect 51 0 50 0;
#X connect 51 0 44 0;
#X connect 52 0 50 0;
#X connect 54 0 24 0;
#X connect 56 0 57 0;
#X connect 57 1 58 0;
#X connect 64 0 65 0;
#X connect 64 1 66 0;
#X connect 71 0 70 0;
#X connect 72 0 71 0;
#X connect 73 0 72 1;
